<svg width="184" height="94" viewBox="0 0 184 94" fill="none" xmlns="http://www.w3.org/2000/svg">
<path d="M11.9612 93.0909H0.143066L34.3249 0H45.9613L80.1431 93.0909H68.3249L40.5067 14.7273H39.7794L11.9612 93.0909ZM16.3249 56.7273H63.9613V66.7273H16.3249V56.7273Z" fill="black"/>
<path d="M183.234 93.0909V0H151.779C144.476 0 138.507 1.31818 133.87 3.95454C129.204 6.56061 125.749 10.0909 123.507 14.5455C121.264 19 120.143 23.9697 120.143 29.4545C120.143 34.9394 121.264 39.9242 123.507 44.4091C125.719 48.8939 129.143 52.4697 133.779 55.1364C138.416 57.7727 144.355 59.0909 151.598 59.0909H174.143V49.0909H151.961C146.961 49.0909 142.946 48.2273 139.916 46.5C136.885 44.7727 134.688 42.4394 133.325 39.5C131.931 36.5303 131.234 33.1818 131.234 29.4545C131.234 25.7273 131.931 22.3939 133.325 19.4545C134.688 16.5152 136.901 14.2121 139.961 12.5455C143.022 10.8485 147.082 10 152.143 10H171.961V93.0909H183.234Z" fill="black"/>
<path d="M68.1431 93.0909V0H99.5976C106.901 0 112.87 1.31818 117.507 3.95454C122.173 6.56061 125.628 10.0909 127.87 14.5455C130.113 19 131.234 23.9697 131.234 29.4545C131.234 34.9394 130.113 39.9242 127.87 44.4091C125.658 48.8939 122.234 52.4697 117.598 55.1364C112.961 57.7727 107.022 59.0909 99.7794 59.0909H77.234V49.0909H99.4158C104.416 49.0909 108.431 48.2273 111.461 46.5C114.492 44.7727 116.689 42.4394 118.052 39.5C119.446 36.5303 120.143 33.1818 120.143 29.4545C120.143 25.7273 119.446 22.3939 118.052 19.4545C116.689 16.5152 114.476 14.2121 111.416 12.5455C108.355 10.8485 104.295 10 99.234 10H79.4158V93.0909H68.1431Z" fill="black"/>
</svg>
